<svg width="40" height="40" viewBox="0 0 40 40" fill="none" xmlns="http://www.w3.org/2000/svg">
<path d="M28.9233 21.3514L16.4541 19.3975L18.1071 26.8277L28.9233 21.3514Z" fill="#D12053"/>
<path d="M28.9222 21.3511L19.5262 8.29639L16.4553 19.3995L28.9222 21.3511Z" fill="#E2136E"/>
<path d="M16.1642 19.2491L6.31909 6.66699L19.2115 8.20713L16.1642 19.2491Z" fill="#D12053"/>
<path d="M11.6803 13.9917L6.21338 8.83984H7.65241L11.6803 13.9917Z" fill="#9E1638"/>
<path d="M31.5822 15.0049L29.2685 21.2806L25.5181 16.0936L31.5822 15.0049Z" fill="#D12053"/>
<path d="M19.5615 26.4512L28.6401 22.8042L29.021 21.645L19.5615 26.4512Z" fill="#E2136E"/>
<path d="M12.3008 33.3339L16.1899 19.6914L18.1627 28.5678L12.3008 33.3339Z" fill="#9E1638"/>
<path d="M31.9437 15.0542L30.989 17.6454L34.4314 17.589L31.9437 15.0542Z" fill="#E2136E"/>
</svg>
