<svg width="76" height="76" viewBox="0 0 76 76" fill="none" xmlns="http://www.w3.org/2000/svg">
<g clip-path="url(#clip0_600_30908)">
<path d="M56.8139 55.8968H12.4698C10.1778 55.8968 8.31255 57.7621 8.31255 60.0541C8.31255 62.3461 10.1778 64.2113 12.4698 64.2113H56.8139C59.1059 64.2113 60.9711 62.3461 60.9711 60.0541C60.9711 57.7621 59.1059 55.8968 56.8139 55.8968ZM63.7426 14.3243C60.6857 14.3243 58.1996 16.8104 58.1996 19.8673C58.1996 21.921 59.3359 23.6975 61.0016 24.6564C57.795 32.2503 52.7923 36.9092 48.1168 36.4879C42.9175 36.0639 38.677 29.9167 36.3379 19.6317C39.3366 18.8722 41.5705 16.17 41.5705 12.9385C41.5705 9.11661 38.4636 6.00977 34.6417 6.00977C30.8198 6.00977 27.7129 9.11661 27.7129 12.9385C27.7129 16.1701 29.9468 18.8724 32.9455 19.6317C30.6064 29.9167 26.3659 36.0639 21.1666 36.4879C16.5105 36.9092 11.4857 32.2503 8.28197 24.6564C9.94758 23.6975 11.0839 21.9209 11.0839 19.8673C11.0839 16.8104 8.59783 14.3243 5.54092 14.3243C2.48414 14.3243 -0.00195312 16.8104 -0.00195312 19.8673C-0.00195312 22.7109 2.15977 25.0334 4.92017 25.3493L10.2582 53.1253H59.0255L64.3634 25.3493C67.1239 25.0334 69.2856 22.7109 69.2856 19.8673C69.2856 16.8104 66.7995 14.3243 63.7426 14.3243Z" fill="#E5B061"/>
</g>
<defs>
<clipPath id="clip0_600_30908">
<rect width="75.1155" height="75.1155" fill="white"/>
</clipPath>
</defs>
</svg>
