<svg width="76" height="76" viewBox="0 0 76 76" fill="none" xmlns="http://www.w3.org/2000/svg">
<g clip-path="url(#clip0_600_30880)">
<path d="M61.5947 60.0929H13.5208C11.036 60.0929 9.01386 62.115 9.01386 64.5999C9.01386 67.0847 11.036 69.1068 13.5208 69.1068H61.5947C64.0795 69.1068 66.1016 67.0847 66.1016 64.5999C66.1016 62.115 64.0795 60.0929 61.5947 60.0929ZM69.1063 15.0236C65.7922 15.0236 63.097 17.7188 63.097 21.0329C63.097 23.2593 64.3289 25.1852 66.1346 26.2248C62.6584 34.4574 57.2349 39.5082 52.1661 39.0515C46.5295 38.5919 41.9323 31.9276 39.3965 20.7774C42.6474 19.9541 45.0691 17.0246 45.0691 13.5213C45.0691 9.37793 41.701 6.00977 37.5576 6.00977C33.4142 6.00977 30.0461 9.37793 30.0461 13.5213C30.0461 17.0248 32.4678 19.9543 35.7187 20.7774C33.1829 31.9276 28.5857 38.5919 22.9491 39.0515C17.9014 39.5082 12.4539 34.4574 8.9807 26.2248C10.7864 25.1852 12.0183 23.2592 12.0183 21.0329C12.0183 17.7188 9.32312 15.0236 6.00909 15.0236C2.69521 15.0236 0 17.7188 0 21.0329C0 24.1157 2.34354 26.6335 5.33613 26.9759L11.1231 57.0883H63.9924L69.7792 26.9759C72.7719 26.6335 75.1155 24.1157 75.1155 21.0329C75.1155 17.7188 72.4203 15.0236 69.1063 15.0236Z" fill="url(#paint0_linear_600_30880)"/>
</g>
<defs>
<linearGradient id="paint0_linear_600_30880" x1="8.71185" y1="9.29316" x2="73.1795" y2="68.1465" gradientUnits="userSpaceOnUse">
<stop stop-color="#FDC81C"/>
<stop offset="1" stop-color="#EF531E"/>
</linearGradient>
<clipPath id="clip0_600_30880">
<rect width="75.1155" height="75.1155" fill="white"/>
</clipPath>
</defs>
</svg>
