<svg width="76" height="76" viewBox="0 0 76 76" fill="none" xmlns="http://www.w3.org/2000/svg">
<path d="M53.2667 60.3774H14.7247C12.7326 60.3774 11.1114 61.9985 11.1114 63.9907C11.1114 65.9828 12.7326 67.604 14.7247 67.604H53.2667C55.2589 67.604 56.88 65.9828 56.88 63.9907C56.88 61.9985 55.2589 60.3774 53.2667 60.3774ZM59.2889 24.2442C56.632 24.2442 54.4712 26.405 54.4712 29.062C54.4712 30.847 55.4588 32.391 56.9065 33.2244C54.1195 39.8247 49.7714 43.8741 45.7076 43.5079C41.1886 43.1394 37.5029 37.7965 35.4699 28.8572C38.0762 28.1971 40.0178 25.8484 40.0178 23.0398C40.0178 19.7179 37.3174 17.0176 33.9956 17.0176C30.6737 17.0176 27.9734 19.7179 27.9734 23.0398C27.9734 25.8486 29.915 28.1972 32.5213 28.8572C30.4883 37.7965 26.8026 43.1394 22.2836 43.5079C18.2367 43.8741 13.8694 39.8247 11.0848 33.2244C12.5325 32.391 13.5202 30.8469 13.5202 29.062C13.5202 26.405 11.3593 24.2442 8.7024 24.2442C6.04558 24.2442 3.88477 26.405 3.88477 29.062C3.88477 31.5335 5.76364 33.5521 8.16287 33.8267L12.8024 57.9685H55.189L59.8284 33.8267C62.2278 33.5521 64.1067 31.5335 64.1067 29.062C64.1067 26.405 61.9459 24.2442 59.2889 24.2442Z" fill="#F5E0C2"/>
</svg>
