<svg width="1440" height="541" viewBox="0 0 1440 541" fill="none" xmlns="http://www.w3.org/2000/svg">
<g clip-path="url(#clip0_196_31435)">
<rect width="1440" height="541" fill="black"/>
<g filter="url(#filter0_f_196_31435)">
<mask id="path-1-inside-1_196_31435" fill="white">
<path d="M2283.5 1860.5C453.5 1202.5 256.52 1379 100.5 1379C-55.5204 1379 -182 1241.78 -182 1072.5C-182 903.225 -55.5204 766 100.5 766C256.52 766 2714 1987 2283.5 1860.5Z"/>
</mask>
<path d="M2283.5 1860.5C453.5 1202.5 256.52 1379 100.5 1379C-55.5204 1379 -182 1241.78 -182 1072.5C-182 903.225 -55.5204 766 100.5 766C256.52 766 2714 1987 2283.5 1860.5Z" fill="#9933FF" fillOpacity="0.25"/>
<path d="M2283.33 1860.97C2283.44 1860.66 2283.56 1860.34 2283.67 1860.03C2191.7 1824.89 2105.1 1792.28 2014.35 1758.94C1400.89 1553.7 767.958 1262.6 100.5 1334.1C-30.7538 1333.58 -134.492 1202.29 -127.983 1072.5C-128.194 941.97 -18.9581 822.872 100.5 829.314C589.044 1024.08 1136.78 1321.72 1643.33 1591.27C1790.88 1671.39 1881.74 1873.42 1950.95 2075.3C1971.12 2132.57 1989.84 2190.2 1996.96 2239.54C1999.22 2252.17 1999.46 2263.52 1996.58 2272.66C1995.44 2277.42 1993.13 2281.4 1988.28 2283.44C1985.86 2284.46 1982.84 2285.01 1979.01 2284.86C1977.09 2284.79 1974.97 2284.54 1972.61 2284.07C1971.41 2283.82 1970.27 2283.61 1968.81 2283.14C1966.77 2282.19 1964.52 2281.06 1962.05 2279.68C1952.07 2274.05 1938.65 2265.53 1917.66 2246.55C1907.12 2236.91 1894.6 2224.55 1879.26 2206.25C1871.6 2197.07 1863.21 2186.35 1854.1 2173.31C1852.96 2171.68 1851.81 2170.01 1850.65 2168.3C1850.5 2168.09 1850.36 2167.88 1850.21 2167.66C1850.13 2167.54 1850.1 2167.5 1849.96 2167.29C1849.76 2166.98 1849.55 2166.65 1849.37 2166.37C1848.56 2165.11 1847.77 2163.87 1846.95 2162.57C1845.33 2160.02 1843.67 2157.34 1842.01 2154.62C1835.35 2143.66 1828.38 2131.35 1821.19 2117.11C1806.89 2088.62 1791.35 2052.68 1778.82 2004.09C1752.87 1912.25 1746.26 1738.97 1833.33 1586.76C1918.6 1433.8 2049.84 1360.39 2128.55 1330.74C2206.72 1301.5 2242.73 1298.34 2279.1 1293.24C2346.73 1286.1 2376.9 1289.38 2399.56 1289.89C2405.06 1290.13 2409.85 1290.37 2414.1 1290.57C2415.13 1290.61 2416.29 1290.68 2417.1 1290.7C2417.6 1290.65 2418.09 1290.61 2418.57 1290.57C2419.54 1290.48 2420.47 1290.39 2421.38 1290.3C2425.02 1289.94 2428.23 1289.54 2431.08 1289.11C2436.79 1288.23 2441.11 1287.19 2444.49 1285.97C2451.21 1283.54 2454.22 1280.41 2455.05 1276.68C2340.68 1665.89 2226.32 2055.11 2111.95 2444.32C2127.36 2444.87 2143.29 2445.26 2161.33 2445.59C2170.36 2445.75 2179.95 2445.91 2190.52 2446.04C2195.8 2446.11 2201.34 2446.17 2207.21 2446.22C2208.68 2446.24 2210.17 2446.25 2211.68 2446.26C2212.44 2446.27 2213.2 2446.27 2213.97 2446.28C2215.23 2446.37 2217 2446.55 2218.56 2446.68C2224.98 2447.24 2231.84 2447.8 2239.3 2448.31C2269.82 2449.91 2306.2 2453.52 2378.49 2445.98C2417.23 2440.66 2454.96 2437.19 2534.98 2407.28C2615.58 2376.91 2748.11 2302.52 2834.09 2148.3C2921.86 1994.83 2915.38 1820.03 2888.97 1726.39C2876.22 1676.9 2860.31 1640 2845.51 1610.48C2838.06 1595.73 2830.8 1582.89 2823.81 1571.39C2822.08 1568.53 2820.33 1565.72 2818.63 1563.02C2817.77 1561.66 2816.93 1560.35 2816.08 1559.02C2815.89 1558.72 2815.66 1558.37 2815.45 1558.05C2815.38 1557.92 2815.38 1557.94 2815.36 1557.91C2815.34 1557.87 2815.33 1557.86 2815.3 1557.82C2815.27 1557.76 2815.23 1557.71 2815.19 1557.65C2815.03 1557.42 2814.88 1557.2 2814.73 1556.97C2813.51 1555.17 2812.29 1553.4 2811.09 1551.66C2801.45 1537.82 2792.48 1526.27 2784.16 1516.23C2767.49 1496.2 2753.38 1481.98 2740.97 1470.35C2716.23 1447.41 2697.98 1434.42 2682.12 1423.82C2599.02 1379.36 2570.68 1387.46 2529.44 1383.19C2456.96 1383.19 2392.82 1393.49 2327.2 1402.69C2102.58 1440.81 1889.07 1484.67 1735.82 1410.57C1196.97 1160.61 706.953 898.614 100.5 702.686C-99.0834 703.703 -244.092 894.345 -236.017 1072.5C-237.794 1251.4 -87.2875 1429.84 100.5 1423.9C749.249 1326.01 1388.55 1590.24 2010.23 1770.88C2102.18 1800.57 2190.04 1829.51 2283.33 1860.97ZM2283.67 1860.03L2283.33 1860.97L2111.95 2444.32L2455.05 1276.68L2283.67 1860.03Z" fill="black" mask="url(#path-1-inside-1_196_31435)"/>
</g>
<g filter="url(#filter1_f_196_31435)">
<path d="M2124.5 1168.5C2124.5 1337.78 298.52 238 142.5 238C-13.5204 238 -140 100.775 -140 -68.5C-140 -237.775 309.98 -53.5 466 -53.5C622.02 -53.5 2124.5 999.225 2124.5 1168.5Z" fill="#BB33FF" fillOpacity="0.36"/>
</g>
<path d="M268.088 112.324C269.617 111.005 270.584 109.056 270.584 106.878C270.584 102.898 267.362 99.675 263.381 99.675C259.408 99.675 256.184 102.898 256.184 106.878C256.184 109.056 257.153 111.005 258.681 112.324" stroke="white" stroke-width="1.5" stroke-linecap="round" stroke-linejoin="round"/>
<path d="M266.458 103.816L264.505 105.769M264.959 106.877C264.959 107.748 264.253 108.453 263.383 108.453C262.512 108.453 261.806 107.748 261.806 106.877C261.806 106.006 262.512 105.3 263.383 105.3C264.253 105.3 264.959 106.006 264.959 106.877Z" stroke="white" stroke-width="1.5" stroke-linecap="round" stroke-linejoin="round"/>
<path d="M71.6666 123.333V127.333" stroke="#F50F0F" stroke-width="1.33333" stroke-linecap="round" stroke-linejoin="round"/>
<path d="M74.3334 123.333V127.333" stroke="#F50F0F" stroke-width="1.33333" stroke-linecap="round" stroke-linejoin="round"/>
<path d="M77.6667 120V129.333C77.6667 129.687 77.5262 130.026 77.2762 130.276C77.0261 130.526 76.687 130.667 76.3334 130.667H69.6667C69.3131 130.667 68.9739 130.526 68.7239 130.276C68.4738 130.026 68.3334 129.687 68.3334 129.333V120" stroke="#F50F0F" stroke-width="1.33333" stroke-linecap="round" stroke-linejoin="round"/>
<path d="M67 120H79" stroke="#F50F0F" stroke-width="1.33333" stroke-linecap="round" stroke-linejoin="round"/>
<path d="M70.3334 120V118.667C70.3334 118.313 70.4739 117.974 70.7239 117.724C70.9739 117.474 71.3131 117.333 71.6667 117.333H74.3334C74.687 117.333 75.0261 117.474 75.2762 117.724C75.5262 117.974 75.6667 118.313 75.6667 118.667V120" stroke="#F50F0F" stroke-width="1.33333" stroke-linecap="round" stroke-linejoin="round"/>
<path d="M73 84H68.3333C67.9797 84 67.6406 84.1405 67.3905 84.3905C67.1405 84.6406 67 84.9797 67 85.3333V94.6667C67 95.0203 67.1405 95.3594 67.3905 95.6095C67.6406 95.8595 67.9797 96 68.3333 96H77.6667C78.0203 96 78.3594 95.8595 78.6095 95.6095C78.8595 95.3594 79 95.0203 79 94.6667V90" stroke="#58E081" stroke-width="1.33333" stroke-linecap="round" stroke-linejoin="round"/>
<path d="M77.25 83.75C77.5152 83.4848 77.8749 83.3358 78.25 83.3358C78.6251 83.3358 78.9848 83.4848 79.25 83.75C79.5152 84.0152 79.6642 84.375 79.6642 84.75C79.6642 85.1251 79.5152 85.4848 79.25 85.75L73.2414 91.7594C73.0831 91.9175 72.8875 92.0333 72.6727 92.096L70.7574 92.656C70.7 92.6728 70.6392 92.6738 70.5813 92.6589C70.5234 92.6441 70.4706 92.614 70.4283 92.5717C70.3861 92.5295 70.3559 92.4766 70.3411 92.4188C70.3263 92.3609 70.3273 92.3001 70.344 92.2427L70.904 90.3274C70.967 90.1127 71.083 89.9174 71.2414 89.7594L77.25 83.75Z" stroke="#58E081" stroke-width="1.33333" stroke-linecap="round" stroke-linejoin="round"/>
<path d="M66.3747 56.232C66.3191 56.0823 66.3191 55.9177 66.3747 55.768C66.9158 54.4559 67.8344 53.334 69.0139 52.5446C70.1934 51.7552 71.5807 51.3337 73 51.3337C74.4193 51.3337 75.8067 51.7552 76.9862 52.5446C78.1657 53.334 79.0842 54.4559 79.6253 55.768C79.6809 55.9177 79.6809 56.0823 79.6253 56.232C79.0842 57.5441 78.1657 58.666 76.9862 59.4554C75.8067 60.2448 74.4193 60.6663 73 60.6663C71.5807 60.6663 70.1934 60.2448 69.0139 59.4554C67.8344 58.666 66.9158 57.5441 66.3747 56.232Z" stroke="#DE9C3A" stroke-width="1.33333" stroke-linecap="round" stroke-linejoin="round"/>
<path d="M73 58C74.1046 58 75 57.1046 75 56C75 54.8954 74.1046 54 73 54C71.8954 54 71 54.8954 71 56C71 57.1046 71.8954 58 73 58Z" stroke="#DE9C3A" stroke-width="1.33333" stroke-linecap="round" stroke-linejoin="round"/>
<rect width="204" height="38" transform="translate(247 36)" fill="#4E4E4E"/>
<path d="M258.246 60V50.06H261.62C262.675 50.06 263.552 50.284 264.252 50.732C264.961 51.1707 265.493 51.768 265.848 52.524C266.203 53.2707 266.38 54.1013 266.38 55.016C266.38 56.024 266.184 56.9013 265.792 57.648C265.409 58.3947 264.859 58.9733 264.14 59.384C263.431 59.7947 262.591 60 261.62 60H258.246ZM265.4 55.016C265.4 54.2227 265.251 53.518 264.952 52.902C264.663 52.286 264.238 51.8053 263.678 51.46C263.118 51.1053 262.432 50.928 261.62 50.928H259.226V59.132H261.62C262.441 59.132 263.132 58.95 263.692 58.586C264.252 58.222 264.677 57.732 264.966 57.116C265.255 56.4907 265.4 55.7907 265.4 55.016ZM267.415 57.9C267.415 57.4427 267.546 57.0507 267.807 56.724C268.068 56.388 268.428 56.1313 268.885 55.954C269.352 55.7673 269.888 55.674 270.495 55.674C270.85 55.674 271.218 55.702 271.601 55.758C271.984 55.814 272.324 55.898 272.623 56.01V55.394C272.623 54.778 272.441 54.288 272.077 53.924C271.713 53.56 271.209 53.378 270.565 53.378C270.173 53.378 269.786 53.4527 269.403 53.602C269.03 53.742 268.638 53.952 268.227 54.232L267.863 53.56C268.339 53.2333 268.806 52.9907 269.263 52.832C269.72 52.664 270.187 52.58 270.663 52.58C271.559 52.58 272.268 52.8367 272.791 53.35C273.314 53.8633 273.575 54.5727 273.575 55.478V58.852C273.575 58.9827 273.603 59.0807 273.659 59.146C273.715 59.202 273.804 59.2347 273.925 59.244V60C273.822 60.0093 273.734 60.0187 273.659 60.028C273.584 60.0373 273.528 60.0373 273.491 60.028C273.258 60.0187 273.08 59.944 272.959 59.804C272.838 59.664 272.772 59.5147 272.763 59.356L272.749 58.824C272.422 59.244 271.998 59.5707 271.475 59.804C270.952 60.028 270.42 60.14 269.879 60.14C269.412 60.14 268.988 60.042 268.605 59.846C268.232 59.6407 267.938 59.37 267.723 59.034C267.518 58.6887 267.415 58.3107 267.415 57.9ZM272.301 58.46C272.404 58.3293 272.483 58.2033 272.539 58.082C272.595 57.9607 272.623 57.8533 272.623 57.76V56.696C272.306 56.5747 271.974 56.4813 271.629 56.416C271.293 56.3507 270.952 56.318 270.607 56.318C269.926 56.318 269.375 56.4533 268.955 56.724C268.535 56.9947 268.325 57.3633 268.325 57.83C268.325 58.1007 268.395 58.3573 268.535 58.6C268.675 58.8333 268.88 59.0293 269.151 59.188C269.422 59.3373 269.739 59.412 270.103 59.412C270.56 59.412 270.985 59.3233 271.377 59.146C271.778 58.9687 272.086 58.74 272.301 58.46ZM278.026 60.14C277.429 60.14 276.873 60.042 276.36 59.846C275.847 59.65 275.403 59.3513 275.03 58.95L275.422 58.278C275.833 58.6607 276.243 58.9407 276.654 59.118C277.074 59.286 277.517 59.37 277.984 59.37C278.553 59.37 279.015 59.258 279.37 59.034C279.725 58.8007 279.902 58.4693 279.902 58.04C279.902 57.7507 279.813 57.5313 279.636 57.382C279.468 57.2233 279.221 57.0973 278.894 57.004C278.577 56.9013 278.194 56.794 277.746 56.682C277.242 56.542 276.817 56.3973 276.472 56.248C276.136 56.0893 275.879 55.8933 275.702 55.66C275.534 55.4173 275.45 55.1047 275.45 54.722C275.45 54.246 275.567 53.854 275.8 53.546C276.043 53.2287 276.369 52.9907 276.78 52.832C277.2 52.664 277.667 52.58 278.18 52.58C278.74 52.58 279.235 52.6687 279.664 52.846C280.093 53.0233 280.443 53.2707 280.714 53.588L280.252 54.232C279.991 53.9333 279.678 53.714 279.314 53.574C278.959 53.4247 278.563 53.35 278.124 53.35C277.825 53.35 277.541 53.392 277.27 53.476C276.999 53.5507 276.775 53.6813 276.598 53.868C276.43 54.0453 276.346 54.2927 276.346 54.61C276.346 54.8713 276.411 55.0767 276.542 55.226C276.673 55.366 276.869 55.4873 277.13 55.59C277.391 55.6833 277.713 55.786 278.096 55.898C278.647 56.0473 279.127 56.2013 279.538 56.36C279.949 56.5093 280.266 56.7053 280.49 56.948C280.714 57.1907 280.826 57.5313 280.826 57.97C280.826 58.6513 280.569 59.1833 280.056 59.566C279.543 59.9487 278.866 60.14 278.026 60.14ZM288.532 60H287.58V55.926C287.58 55.1047 287.435 54.4887 287.146 54.078C286.856 53.658 286.441 53.448 285.9 53.448C285.545 53.448 285.19 53.5413 284.836 53.728C284.49 53.9053 284.182 54.1527 283.912 54.47C283.65 54.778 283.464 55.1327 283.352 55.534V60H282.4V49.78H283.352V54.358C283.641 53.8167 284.042 53.3873 284.556 53.07C285.078 52.7433 285.634 52.58 286.222 52.58C286.642 52.58 286.996 52.6547 287.286 52.804C287.584 52.9533 287.822 53.1727 288 53.462C288.186 53.742 288.322 54.0733 288.406 54.456C288.49 54.8293 288.532 55.254 288.532 55.73V60ZM294.132 60.14C293.562 60.14 293.035 59.9953 292.55 59.706C292.064 59.4073 291.686 59.034 291.416 58.586V60H290.562V49.78H291.514V54.232C291.84 53.7373 292.232 53.3407 292.69 53.042C293.147 52.734 293.679 52.58 294.286 52.58C294.799 52.58 295.256 52.6873 295.658 52.902C296.068 53.1167 296.418 53.406 296.708 53.77C296.997 54.1247 297.216 54.5307 297.366 54.988C297.515 55.436 297.59 55.898 297.59 56.374C297.59 56.8873 297.501 57.368 297.324 57.816C297.156 58.264 296.913 58.6653 296.596 59.02C296.278 59.3653 295.91 59.6407 295.49 59.846C295.079 60.042 294.626 60.14 294.132 60.14ZM293.908 59.3C294.3 59.3 294.664 59.2207 295 59.062C295.336 58.9033 295.625 58.684 295.868 58.404C296.11 58.124 296.297 57.8113 296.428 57.466C296.558 57.1113 296.624 56.7473 296.624 56.374C296.624 55.8607 296.512 55.38 296.288 54.932C296.073 54.4747 295.77 54.1107 295.378 53.84C294.995 53.56 294.542 53.42 294.02 53.42C293.646 53.42 293.296 53.504 292.97 53.672C292.652 53.84 292.368 54.064 292.116 54.344C291.873 54.6147 291.672 54.9133 291.514 55.24V57.508C291.551 57.76 291.649 57.998 291.808 58.222C291.966 58.4367 292.162 58.6233 292.396 58.782C292.638 58.9407 292.89 59.0667 293.152 59.16C293.413 59.2533 293.665 59.3 293.908 59.3ZM302.31 60.14C301.788 60.14 301.302 60.042 300.854 59.846C300.416 59.6407 300.033 59.3653 299.706 59.02C299.389 58.6653 299.142 58.264 298.964 57.816C298.787 57.3587 298.698 56.878 298.698 56.374C298.698 55.8513 298.787 55.366 298.964 54.918C299.142 54.4607 299.394 54.0593 299.72 53.714C300.047 53.3593 300.43 53.084 300.868 52.888C301.316 52.6827 301.802 52.58 302.324 52.58C302.847 52.58 303.328 52.6827 303.766 52.888C304.205 53.084 304.588 53.3593 304.914 53.714C305.241 54.0593 305.493 54.4607 305.67 54.918C305.848 55.366 305.936 55.8513 305.936 56.374C305.936 56.878 305.848 57.3587 305.67 57.816C305.493 58.264 305.241 58.6653 304.914 59.02C304.597 59.3653 304.214 59.6407 303.766 59.846C303.328 60.042 302.842 60.14 302.31 60.14ZM299.664 56.388C299.664 56.9293 299.781 57.424 300.014 57.872C300.257 58.3107 300.579 58.6607 300.98 58.922C301.382 59.174 301.825 59.3 302.31 59.3C302.796 59.3 303.239 59.1693 303.64 58.908C304.042 58.6467 304.364 58.292 304.606 57.844C304.849 57.3867 304.97 56.892 304.97 56.36C304.97 55.8187 304.849 55.324 304.606 54.876C304.364 54.428 304.042 54.0733 303.64 53.812C303.239 53.5507 302.796 53.42 302.31 53.42C301.825 53.42 301.382 53.5553 300.98 53.826C300.588 54.0967 300.271 54.456 300.028 54.904C299.786 55.3427 299.664 55.8373 299.664 56.388ZM306.941 57.9C306.941 57.4427 307.071 57.0507 307.333 56.724C307.594 56.388 307.953 56.1313 308.411 55.954C308.877 55.7673 309.414 55.674 310.021 55.674C310.375 55.674 310.744 55.702 311.127 55.758C311.509 55.814 311.85 55.898 312.149 56.01V55.394C312.149 54.778 311.967 54.288 311.603 53.924C311.239 53.56 310.735 53.378 310.091 53.378C309.699 53.378 309.311 53.4527 308.929 53.602C308.555 53.742 308.163 53.952 307.753 54.232L307.389 53.56C307.865 53.2333 308.331 52.9907 308.789 52.832C309.246 52.664 309.713 52.58 310.189 52.58C311.085 52.58 311.794 52.8367 312.317 53.35C312.839 53.8633 313.101 54.5727 313.101 55.478V58.852C313.101 58.9827 313.129 59.0807 313.185 59.146C313.241 59.202 313.329 59.2347 313.451 59.244V60C313.348 60.0093 313.259 60.0187 313.185 60.028C313.11 60.0373 313.054 60.0373 313.017 60.028C312.783 60.0187 312.606 59.944 312.485 59.804C312.363 59.664 312.298 59.5147 312.289 59.356L312.275 58.824C311.948 59.244 311.523 59.5707 311.001 59.804C310.478 60.028 309.946 60.14 309.405 60.14C308.938 60.14 308.513 60.042 308.131 59.846C307.757 59.6407 307.463 59.37 307.249 59.034C307.043 58.6887 306.941 58.3107 306.941 57.9ZM311.827 58.46C311.929 58.3293 312.009 58.2033 312.065 58.082C312.121 57.9607 312.149 57.8533 312.149 57.76V56.696C311.831 56.5747 311.5 56.4813 311.155 56.416C310.819 56.3507 310.478 56.318 310.133 56.318C309.451 56.318 308.901 56.4533 308.481 56.724C308.061 56.9947 307.851 57.3633 307.851 57.83C307.851 58.1007 307.921 58.3573 308.061 58.6C308.201 58.8333 308.406 59.0293 308.677 59.188C308.947 59.3373 309.265 59.412 309.629 59.412C310.086 59.412 310.511 59.3233 310.903 59.146C311.304 58.9687 311.612 58.74 311.827 58.46ZM318.797 53.546C318.163 53.5647 317.603 53.742 317.117 54.078C316.641 54.414 316.305 54.876 316.109 55.464V60H315.157V52.706H316.053V54.456C316.305 53.9427 316.637 53.5273 317.047 53.21C317.467 52.8927 317.911 52.7153 318.377 52.678C318.471 52.6687 318.55 52.664 318.615 52.664C318.69 52.664 318.751 52.6687 318.797 52.678V53.546ZM319.371 56.374C319.371 55.6833 319.511 55.0533 319.791 54.484C320.08 53.9053 320.477 53.4433 320.981 53.098C321.485 52.7527 322.059 52.58 322.703 52.58C323.309 52.58 323.851 52.7433 324.327 53.07C324.812 53.3873 325.19 53.7747 325.461 54.232V49.78H326.413V58.852C326.413 58.9827 326.441 59.0807 326.497 59.146C326.553 59.202 326.637 59.2347 326.749 59.244V60C326.562 60.028 326.417 60.0373 326.315 60.028C326.119 60.0187 325.946 59.9393 325.797 59.79C325.647 59.6407 325.573 59.4773 325.573 59.3V58.586C325.283 59.062 324.891 59.44 324.397 59.72C323.902 60 323.389 60.14 322.857 60.14C322.353 60.14 321.886 60.0373 321.457 59.832C321.037 59.6267 320.668 59.3467 320.351 58.992C320.043 58.6373 319.8 58.236 319.623 57.788C319.455 57.3307 319.371 56.8593 319.371 56.374ZM325.461 57.494V55.24C325.339 54.904 325.143 54.6007 324.873 54.33C324.602 54.05 324.294 53.8307 323.949 53.672C323.613 53.504 323.277 53.42 322.941 53.42C322.549 53.42 322.194 53.504 321.877 53.672C321.559 53.8307 321.284 54.05 321.051 54.33C320.827 54.61 320.654 54.9273 320.533 55.282C320.411 55.6367 320.351 56.0007 320.351 56.374C320.351 56.766 320.416 57.1393 320.547 57.494C320.687 57.8487 320.883 58.166 321.135 58.446C321.387 58.7167 321.676 58.9267 322.003 59.076C322.329 59.2253 322.684 59.3 323.067 59.3C323.309 59.3 323.561 59.2533 323.823 59.16C324.084 59.0667 324.331 58.9407 324.565 58.782C324.807 58.614 325.008 58.418 325.167 58.194C325.325 57.97 325.423 57.7367 325.461 57.494ZM338.144 51.922C338.004 51.7633 337.841 51.6233 337.654 51.502C337.467 51.3713 337.257 51.2593 337.024 51.166C336.791 51.0727 336.539 50.998 336.268 50.942C336.007 50.886 335.727 50.858 335.428 50.858C334.56 50.858 333.921 51.026 333.51 51.362C333.109 51.6887 332.908 52.1367 332.908 52.706C332.908 53.098 333.001 53.406 333.188 53.63C333.384 53.854 333.687 54.036 334.098 54.176C334.509 54.316 335.031 54.4607 335.666 54.61C336.375 54.7593 336.987 54.9367 337.5 55.142C338.013 55.3473 338.41 55.6273 338.69 55.982C338.97 56.3273 339.11 56.7987 339.11 57.396C339.11 57.8533 339.021 58.25 338.844 58.586C338.667 58.922 338.419 59.202 338.102 59.426C337.785 59.65 337.407 59.818 336.968 59.93C336.529 60.0327 336.049 60.084 335.526 60.084C335.013 60.084 334.518 60.0327 334.042 59.93C333.575 59.818 333.132 59.6593 332.712 59.454C332.292 59.2393 331.9 58.9687 331.536 58.642L332.026 57.844C332.203 58.0307 332.413 58.208 332.656 58.376C332.908 58.5347 333.183 58.6793 333.482 58.81C333.79 58.9407 334.117 59.0433 334.462 59.118C334.817 59.1833 335.181 59.216 335.554 59.216C336.347 59.216 336.963 59.0713 337.402 58.782C337.85 58.4927 338.074 58.0633 338.074 57.494C338.074 57.0833 337.962 56.7567 337.738 56.514C337.514 56.262 337.178 56.0567 336.73 55.898C336.282 55.7393 335.731 55.5853 335.078 55.436C334.387 55.2773 333.804 55.1 333.328 54.904C332.852 54.708 332.493 54.4513 332.25 54.134C332.017 53.8073 331.9 53.378 331.9 52.846C331.9 52.23 332.049 51.712 332.348 51.292C332.656 50.8627 333.076 50.5407 333.608 50.326C334.14 50.102 334.751 49.99 335.442 49.99C335.881 49.99 336.287 50.0367 336.66 50.13C337.043 50.214 337.393 50.34 337.71 50.508C338.037 50.676 338.34 50.886 338.62 51.138L338.144 51.922ZM340.642 60V52.706H341.594V60H340.642ZM340.642 51.18V49.78H341.594V51.18H340.642ZM343.201 56.374C343.201 55.6833 343.341 55.0533 343.621 54.484C343.91 53.9053 344.307 53.4433 344.811 53.098C345.315 52.7527 345.889 52.58 346.533 52.58C347.139 52.58 347.681 52.7433 348.157 53.07C348.642 53.3873 349.02 53.7747 349.291 54.232V49.78H350.243V58.852C350.243 58.9827 350.271 59.0807 350.327 59.146C350.383 59.202 350.467 59.2347 350.579 59.244V60C350.392 60.028 350.247 60.0373 350.145 60.028C349.949 60.0187 349.776 59.9393 349.627 59.79C349.477 59.6407 349.403 59.4773 349.403 59.3V58.586C349.113 59.062 348.721 59.44 348.227 59.72C347.732 60 347.219 60.14 346.687 60.14C346.183 60.14 345.716 60.0373 345.287 59.832C344.867 59.6267 344.498 59.3467 344.181 58.992C343.873 58.6373 343.63 58.236 343.453 57.788C343.285 57.3307 343.201 56.8593 343.201 56.374ZM349.291 57.494V55.24C349.169 54.904 348.973 54.6007 348.703 54.33C348.432 54.05 348.124 53.8307 347.779 53.672C347.443 53.504 347.107 53.42 346.771 53.42C346.379 53.42 346.024 53.504 345.707 53.672C345.389 53.8307 345.114 54.05 344.881 54.33C344.657 54.61 344.484 54.9273 344.363 55.282C344.241 55.6367 344.181 56.0007 344.181 56.374C344.181 56.766 344.246 57.1393 344.377 57.494C344.517 57.8487 344.713 58.166 344.965 58.446C345.217 58.7167 345.506 58.9267 345.833 59.076C346.159 59.2253 346.514 59.3 346.897 59.3C347.139 59.3 347.391 59.2533 347.653 59.16C347.914 59.0667 348.161 58.9407 348.395 58.782C348.637 58.614 348.838 58.418 348.997 58.194C349.155 57.97 349.253 57.7367 349.291 57.494ZM355.55 60.14C355.027 60.14 354.542 60.042 354.094 59.846C353.646 59.6407 353.258 59.3653 352.932 59.02C352.605 58.6653 352.348 58.2593 352.162 57.802C351.984 57.3447 351.896 56.8547 351.896 56.332C351.896 55.6507 352.05 55.0253 352.358 54.456C352.675 53.8867 353.109 53.434 353.66 53.098C354.21 52.7527 354.836 52.58 355.536 52.58C356.254 52.58 356.88 52.7527 357.412 53.098C357.953 53.4433 358.378 53.9007 358.686 54.47C358.994 55.03 359.148 55.646 359.148 56.318C359.148 56.3927 359.148 56.4673 359.148 56.542C359.148 56.6073 359.143 56.6587 359.134 56.696H352.89C352.936 57.2187 353.081 57.6853 353.324 58.096C353.576 58.4973 353.898 58.8193 354.29 59.062C354.691 59.2953 355.125 59.412 355.592 59.412C356.068 59.412 356.516 59.2907 356.936 59.048C357.365 58.8053 357.664 58.488 357.832 58.096L358.658 58.32C358.508 58.6653 358.28 58.978 357.972 59.258C357.664 59.538 357.3 59.7573 356.88 59.916C356.469 60.0653 356.026 60.14 355.55 60.14ZM352.862 56.01H358.252C358.214 55.478 358.07 55.0113 357.818 54.61C357.575 54.2087 357.253 53.896 356.852 53.672C356.46 53.4387 356.026 53.322 355.55 53.322C355.074 53.322 354.64 53.4387 354.248 53.672C353.856 53.896 353.534 54.2133 353.282 54.624C353.039 55.0253 352.899 55.4873 352.862 56.01ZM371.857 57.438C371.857 57.9327 371.731 58.376 371.479 58.768C371.227 59.1507 370.886 59.454 370.457 59.678C370.037 59.8927 369.575 60 369.071 60H364.381V50.06H369.169C369.635 50.06 370.037 50.186 370.373 50.438C370.718 50.6807 370.979 50.998 371.157 51.39C371.343 51.7727 371.437 52.174 371.437 52.594C371.437 53.0887 371.311 53.546 371.059 53.966C370.807 54.386 370.457 54.6987 370.009 54.904C370.578 55.072 371.026 55.3847 371.353 55.842C371.689 56.2993 371.857 56.8313 371.857 57.438ZM370.877 57.27C370.877 56.934 370.802 56.626 370.653 56.346C370.503 56.0567 370.298 55.8233 370.037 55.646C369.785 55.4687 369.495 55.38 369.169 55.38H365.361V59.146H369.071C369.407 59.146 369.71 59.0573 369.981 58.88C370.251 58.7027 370.466 58.474 370.625 58.194C370.793 57.9047 370.877 57.5967 370.877 57.27ZM365.361 50.914V54.582H368.777C369.103 54.582 369.393 54.498 369.645 54.33C369.897 54.1527 370.097 53.924 370.247 53.644C370.396 53.364 370.471 53.0653 370.471 52.748C370.471 52.412 370.401 52.1087 370.261 51.838C370.121 51.558 369.929 51.334 369.687 51.166C369.444 50.998 369.169 50.914 368.861 50.914H365.361ZM372.921 57.9C372.921 57.4427 373.052 57.0507 373.313 56.724C373.574 56.388 373.934 56.1313 374.391 55.954C374.858 55.7673 375.394 55.674 376.001 55.674C376.356 55.674 376.724 55.702 377.107 55.758C377.49 55.814 377.83 55.898 378.129 56.01V55.394C378.129 54.778 377.947 54.288 377.583 53.924C377.219 53.56 376.715 53.378 376.071 53.378C375.679 53.378 375.292 53.4527 374.909 53.602C374.536 53.742 374.144 53.952 373.733 54.232L373.369 53.56C373.845 53.2333 374.312 52.9907 374.769 52.832C375.226 52.664 375.693 52.58 376.169 52.58C377.065 52.58 377.774 52.8367 378.297 53.35C378.82 53.8633 379.081 54.5727 379.081 55.478V58.852C379.081 58.9827 379.109 59.0807 379.165 59.146C379.221 59.202 379.31 59.2347 379.431 59.244V60C379.328 60.0093 379.24 60.0187 379.165 60.028C379.09 60.0373 379.034 60.0373 378.997 60.028C378.764 60.0187 378.586 59.944 378.465 59.804C378.344 59.664 378.278 59.5147 378.269 59.356L378.255 58.824C377.928 59.244 377.504 59.5707 376.981 59.804C376.458 60.028 375.926 60.14 375.385 60.14C374.918 60.14 374.494 60.042 374.111 59.846C373.738 59.6407 373.444 59.37 373.229 59.034C373.024 58.6887 372.921 58.3107 372.921 57.9ZM377.807 58.46C377.91 58.3293 377.989 58.2033 378.045 58.082C378.101 57.9607 378.129 57.8533 378.129 57.76V56.696C377.812 56.5747 377.48 56.4813 377.135 56.416C376.799 56.3507 376.458 56.318 376.113 56.318C375.432 56.318 374.881 56.4533 374.461 56.724C374.041 56.9947 373.831 57.3633 373.831 57.83C373.831 58.1007 373.901 58.3573 374.041 58.6C374.181 58.8333 374.386 59.0293 374.657 59.188C374.928 59.3373 375.245 59.412 375.609 59.412C376.066 59.412 376.491 59.3233 376.883 59.146C377.284 58.9687 377.592 58.74 377.807 58.46ZM384.778 53.546C384.143 53.5647 383.583 53.742 383.098 54.078C382.622 54.414 382.286 54.876 382.09 55.464V60H381.138V52.706H382.034V54.456C382.286 53.9427 382.617 53.5273 383.028 53.21C383.448 52.8927 383.891 52.7153 384.358 52.678C384.451 52.6687 384.531 52.664 384.596 52.664C384.671 52.664 384.731 52.6687 384.778 52.678V53.546ZM389.482 60V50.06H390.462V60H389.482ZM395.814 60.14C395.282 60.14 394.792 60.042 394.344 59.846C393.905 59.6407 393.518 59.3607 393.182 59.006C392.855 58.6513 392.598 58.2453 392.412 57.788C392.234 57.3307 392.146 56.8453 392.146 56.332C392.146 55.6413 392.3 55.0113 392.608 54.442C392.916 53.8727 393.345 53.42 393.896 53.084C394.446 52.748 395.081 52.58 395.8 52.58C396.481 52.58 397.083 52.7387 397.606 53.056C398.128 53.364 398.516 53.784 398.768 54.316L397.844 54.61C397.638 54.2367 397.349 53.9473 396.976 53.742C396.612 53.5273 396.206 53.42 395.758 53.42C395.272 53.42 394.829 53.546 394.428 53.798C394.026 54.05 393.704 54.3953 393.462 54.834C393.228 55.2727 393.112 55.772 393.112 56.332C393.112 56.8827 393.233 57.382 393.476 57.83C393.718 58.278 394.04 58.6373 394.442 58.908C394.843 59.1693 395.286 59.3 395.772 59.3C396.089 59.3 396.392 59.244 396.682 59.132C396.98 59.02 397.237 58.8707 397.452 58.684C397.676 58.488 397.825 58.278 397.9 58.054L398.838 58.334C398.707 58.6793 398.488 58.992 398.18 59.272C397.881 59.5427 397.526 59.7573 397.116 59.916C396.714 60.0653 396.28 60.14 395.814 60.14ZM403.373 60.14C402.85 60.14 402.365 60.042 401.917 59.846C401.478 59.6407 401.096 59.3653 400.769 59.02C400.452 58.6653 400.204 58.264 400.027 57.816C399.85 57.3587 399.761 56.878 399.761 56.374C399.761 55.8513 399.85 55.366 400.027 54.918C400.204 54.4607 400.456 54.0593 400.783 53.714C401.11 53.3593 401.492 53.084 401.931 52.888C402.379 52.6827 402.864 52.58 403.387 52.58C403.91 52.58 404.39 52.6827 404.829 52.888C405.268 53.084 405.65 53.3593 405.977 53.714C406.304 54.0593 406.556 54.4607 406.733 54.918C406.91 55.366 406.999 55.8513 406.999 56.374C406.999 56.878 406.91 57.3587 406.733 57.816C406.556 58.264 406.304 58.6653 405.977 59.02C405.66 59.3653 405.277 59.6407 404.829 59.846C404.39 60.042 403.905 60.14 403.373 60.14ZM400.727 56.388C400.727 56.9293 400.844 57.424 401.077 57.872C401.32 58.3107 401.642 58.6607 402.043 58.922C402.444 59.174 402.888 59.3 403.373 59.3C403.858 59.3 404.302 59.1693 404.703 58.908C405.104 58.6467 405.426 58.292 405.669 57.844C405.912 57.3867 406.033 56.892 406.033 56.36C406.033 55.8187 405.912 55.324 405.669 54.876C405.426 54.428 405.104 54.0733 404.703 53.812C404.302 53.5507 403.858 53.42 403.373 53.42C402.888 53.42 402.444 53.5553 402.043 53.826C401.651 54.0967 401.334 54.456 401.091 54.904C400.848 55.3427 400.727 55.8373 400.727 56.388ZM414.723 60H413.771V55.926C413.771 55.0673 413.645 54.442 413.393 54.05C413.141 53.6487 412.744 53.448 412.203 53.448C411.83 53.448 411.461 53.5413 411.097 53.728C410.733 53.9053 410.411 54.1527 410.131 54.47C409.86 54.778 409.664 55.1327 409.543 55.534V60H408.591V52.706H409.459V54.358C409.655 54.0033 409.912 53.6953 410.229 53.434C410.546 53.1633 410.906 52.9533 411.307 52.804C411.708 52.6547 412.124 52.58 412.553 52.58C412.954 52.58 413.295 52.6547 413.575 52.804C413.855 52.9533 414.079 53.168 414.247 53.448C414.415 53.7187 414.536 54.05 414.611 54.442C414.686 54.8247 414.723 55.254 414.723 55.73V60ZM426.327 51.922C426.187 51.7633 426.024 51.6233 425.837 51.502C425.651 51.3713 425.441 51.2593 425.207 51.166C424.974 51.0727 424.722 50.998 424.451 50.942C424.19 50.886 423.91 50.858 423.611 50.858C422.743 50.858 422.104 51.026 421.693 51.362C421.292 51.6887 421.091 52.1367 421.091 52.706C421.091 53.098 421.185 53.406 421.371 53.63C421.567 53.854 421.871 54.036 422.281 54.176C422.692 54.316 423.215 54.4607 423.849 54.61C424.559 54.7593 425.17 54.9367 425.683 55.142C426.197 55.3473 426.593 55.6273 426.873 55.982C427.153 56.3273 427.293 56.7987 427.293 57.396C427.293 57.8533 427.205 58.25 427.027 58.586C426.85 58.922 426.603 59.202 426.285 59.426C425.968 59.65 425.59 59.818 425.151 59.93C424.713 60.0327 424.232 60.084 423.709 60.084C423.196 60.084 422.701 60.0327 422.225 59.93C421.759 59.818 421.315 59.6593 420.895 59.454C420.475 59.2393 420.083 58.9687 419.719 58.642L420.209 57.844C420.387 58.0307 420.597 58.208 420.839 58.376C421.091 58.5347 421.367 58.6793 421.665 58.81C421.973 58.9407 422.3 59.0433 422.645 59.118C423 59.1833 423.364 59.216 423.737 59.216C424.531 59.216 425.147 59.0713 425.585 58.782C426.033 58.4927 426.257 58.0633 426.257 57.494C426.257 57.0833 426.145 56.7567 425.921 56.514C425.697 56.262 425.361 56.0567 424.913 55.898C424.465 55.7393 423.915 55.5853 423.261 55.436C422.571 55.2773 421.987 55.1 421.511 54.904C421.035 54.708 420.676 54.4513 420.433 54.134C420.2 53.8073 420.083 53.378 420.083 52.846C420.083 52.23 420.233 51.712 420.531 51.292C420.839 50.8627 421.259 50.5407 421.791 50.326C422.323 50.102 422.935 49.99 423.625 49.99C424.064 49.99 424.47 50.0367 424.843 50.13C425.226 50.214 425.576 50.34 425.893 50.508C426.22 50.676 426.523 50.886 426.803 51.138L426.327 51.922ZM431.975 60.14C431.453 60.14 430.967 60.042 430.519 59.846C430.071 59.6407 429.684 59.3653 429.357 59.02C429.031 58.6653 428.774 58.2593 428.587 57.802C428.41 57.3447 428.321 56.8547 428.321 56.332C428.321 55.6507 428.475 55.0253 428.783 54.456C429.101 53.8867 429.535 53.434 430.085 53.098C430.636 52.7527 431.261 52.58 431.961 52.58C432.68 52.58 433.305 52.7527 433.837 53.098C434.379 53.4433 434.803 53.9007 435.111 54.47C435.419 55.03 435.573 55.646 435.573 56.318C435.573 56.3927 435.573 56.4673 435.573 56.542C435.573 56.6073 435.569 56.6587 435.559 56.696H429.315C429.362 57.2187 429.507 57.6853 429.749 58.096C430.001 58.4973 430.323 58.8193 430.715 59.062C431.117 59.2953 431.551 59.412 432.017 59.412C432.493 59.412 432.941 59.2907 433.361 59.048C433.791 58.8053 434.089 58.488 434.257 58.096L435.083 58.32C434.934 58.6653 434.705 58.978 434.397 59.258C434.089 59.538 433.725 59.7573 433.305 59.916C432.895 60.0653 432.451 60.14 431.975 60.14ZM429.287 56.01H434.677C434.64 55.478 434.495 55.0113 434.243 54.61C434.001 54.2087 433.679 53.896 433.277 53.672C432.885 53.4387 432.451 53.322 431.975 53.322C431.499 53.322 431.065 53.4387 430.673 53.672C430.281 53.896 429.959 54.2133 429.707 54.624C429.465 55.0253 429.325 55.4873 429.287 56.01ZM440.474 59.65C440.399 59.678 440.282 59.7293 440.124 59.804C439.965 59.8787 439.774 59.944 439.55 60C439.326 60.056 439.083 60.084 438.822 60.084C438.551 60.084 438.294 60.0327 438.052 59.93C437.818 59.8273 437.632 59.6733 437.492 59.468C437.352 59.2533 437.282 58.992 437.282 58.684V53.462H436.274V52.706H437.282V50.242H438.234V52.706H439.914V53.462H438.234V58.418C438.252 58.6793 438.346 58.8753 438.514 59.006C438.691 59.1367 438.892 59.202 439.116 59.202C439.377 59.202 439.615 59.16 439.83 59.076C440.044 58.9827 440.175 58.9173 440.222 58.88L440.474 59.65Z" fill="white"/>
<path fill-rule="evenodd" clip-rule="evenodd" d="M377.339 140.353L376.82 139.453C376.381 138.691 375.409 138.429 374.646 138.866C374.283 139.079 373.85 139.14 373.442 139.034C373.034 138.928 372.686 138.665 372.472 138.301C372.335 138.07 372.262 137.807 372.259 137.538C372.271 137.108 372.109 136.69 371.808 136.381C371.508 136.072 371.095 135.898 370.665 135.898H369.62C369.198 135.898 368.793 136.067 368.495 136.366C368.197 136.665 368.031 137.07 368.033 137.493C368.021 138.364 367.31 139.064 366.439 139.064C366.17 139.061 365.907 138.987 365.676 138.85C364.913 138.413 363.941 138.676 363.502 139.438L362.945 140.353C362.507 141.114 362.766 142.085 363.525 142.527C364.018 142.812 364.322 143.338 364.322 143.908C364.322 144.477 364.018 145.003 363.525 145.288C362.767 145.727 362.508 146.696 362.945 147.454L363.472 148.362C363.677 148.733 364.022 149.007 364.43 149.123C364.838 149.239 365.276 149.187 365.646 148.98C366.009 148.768 366.443 148.71 366.849 148.818C367.256 148.927 367.603 149.194 367.812 149.56C367.949 149.791 368.023 150.054 368.025 150.322C368.025 151.203 368.739 151.917 369.62 151.917H370.665C371.542 151.917 372.255 151.208 372.259 150.33C372.257 149.907 372.424 149.5 372.724 149.201C373.023 148.901 373.43 148.734 373.853 148.736C374.121 148.743 374.383 148.816 374.616 148.949C375.376 149.388 376.348 149.129 376.79 148.37L377.339 147.454C377.552 147.09 377.61 146.655 377.501 146.247C377.392 145.839 377.125 145.491 376.759 145.281C376.393 145.07 376.126 144.722 376.017 144.314C375.909 143.906 375.967 143.471 376.18 143.107C376.318 142.865 376.518 142.665 376.759 142.527C377.513 142.086 377.772 141.12 377.339 140.361V140.353Z" stroke="white" stroke-width="1.5" stroke-linecap="round" stroke-linejoin="round"/>
<path d="M370.146 146.104C371.36 146.104 372.343 145.121 372.343 143.908C372.343 142.694 371.36 141.711 370.146 141.711C368.933 141.711 367.949 142.694 367.949 143.908C367.949 145.121 368.933 146.104 370.146 146.104Z" stroke="white" stroke-width="1.5" stroke-linecap="round" stroke-linejoin="round"/>
<path d="M336.5 144C336.5 139.858 333.142 136.5 329 136.5C324.858 136.5 321.5 139.858 321.5 144C321.5 148.142 324.858 151.5 329 151.5C333.142 151.5 336.5 148.142 336.5 144Z" stroke="#F5FFF6" stroke-width="1.5" stroke-linecap="round" stroke-linejoin="round"/>
<path d="M328.956 147.52V147.497" stroke="#F5FFF6" stroke-width="1.5" stroke-linecap="round" stroke-linejoin="round"/>
<path d="M328.955 145.458C328.945 144.715 329.621 144.401 330.123 144.114C330.735 143.777 331.149 143.24 331.149 142.494C331.149 141.39 330.257 140.504 329.16 140.504C328.055 140.504 327.169 141.39 327.169 142.494" stroke="#F5FFF6" stroke-width="1.5" stroke-linecap="round" stroke-linejoin="round"/>
<path d="M293.195 143.938V138.992" stroke="white" stroke-width="1.44" stroke-linecap="round" stroke-linejoin="round"/>
<path d="M297.011 143.937V136.245" stroke="white" stroke-width="1.44" stroke-linecap="round" stroke-linejoin="round"/>
<path d="M300.829 143.939V141.739" stroke="white" stroke-width="1.44" stroke-linecap="round" stroke-linejoin="round"/>
<path d="M302.4 148.095H291.2C290.317 148.095 289.6 147.379 289.6 146.495V135.295" stroke="white" stroke-width="1.44" stroke-linecap="round" stroke-linejoin="round"/>
<path fill-rule="evenodd" clip-rule="evenodd" d="M260.993 144.672C264.067 144.672 266.694 145.138 266.694 146.999C266.694 148.86 264.084 149.339 260.993 149.339C257.918 149.339 255.291 148.877 255.291 147.016C255.291 145.154 257.9 144.672 260.993 144.672Z" stroke="white" stroke-width="1.5" stroke-linecap="round" stroke-linejoin="round"/>
<path fill-rule="evenodd" clip-rule="evenodd" d="M260.993 142.016C258.974 142.016 257.338 140.381 257.338 138.362C257.338 136.344 258.974 134.708 260.993 134.708C263.01 134.708 264.647 136.344 264.647 138.362C264.654 140.373 263.029 142.009 261.018 142.016H260.993Z" stroke="white" stroke-width="1.5" stroke-linecap="round" stroke-linejoin="round"/>
<path d="M266.736 141.068C268.07 140.88 269.097 139.735 269.1 138.35C269.1 136.984 268.104 135.85 266.798 135.636" stroke="white" stroke-width="1.5" stroke-linecap="round" stroke-linejoin="round"/>
<path d="M268.496 144.277C269.788 144.469 270.691 144.923 270.691 145.856C270.691 146.498 270.266 146.915 269.579 147.176" stroke="white" stroke-width="1.5" stroke-linecap="round" stroke-linejoin="round"/>
<path d="M454.75 109.875C454.75 110.22 454.47 110.5 454.125 110.5C453.78 110.5 453.5 110.22 453.5 109.875C453.5 109.53 453.78 109.25 454.125 109.25C454.47 109.25 454.75 109.53 454.75 109.875Z" stroke="white" stroke-width="1.5" stroke-linecap="round" stroke-linejoin="round"/>
<path d="M461.833 109.875C461.833 110.22 461.554 110.5 461.208 110.5C460.863 110.5 460.583 110.22 460.583 109.875C460.583 109.53 460.863 109.25 461.208 109.25C461.554 109.25 461.833 109.53 461.833 109.875Z" stroke="white" stroke-width="1.5" stroke-linecap="round" stroke-linejoin="round"/>
<path d="M447.667 95.5H447.839C448.943 95.5 449.495 95.5 449.855 95.8352C450.215 96.1703 450.254 96.7209 450.332 97.8219L450.542 100.754C450.66 102.411 450.719 103.24 450.971 103.913C451.521 105.39 452.735 106.52 454.247 106.964C454.937 107.167 455.772 107.167 457.443 107.167C459.198 107.167 460.075 107.167 460.785 106.951C462.383 106.467 463.633 105.216 464.118 103.618C464.333 102.908 464.333 102.036 464.333 100.292C464.333 99.7102 464.333 99.4194 464.262 99.1829C464.1 98.6502 463.683 98.2334 463.15 98.0718C462.914 98 462.623 98 462.042 98H450.583" stroke="white" stroke-width="1.5" stroke-linecap="round" stroke-linejoin="round"/>
<path d="M459.333 101.333V103.833M455.167 101.333V103.833" stroke="white" stroke-width="1.5" stroke-linecap="round" stroke-linejoin="round"/>
<path d="M409.128 99.2136L408.451 100.907C408.213 101.5 408.09 102.135 408.09 102.774L408.079 108.931C408.075 110.829 408.936 112.171 410.837 112.176L419.723 112.188C421.623 112.193 422.464 110.856 422.469 108.958L422.479 102.79C422.48 102.14 422.356 101.496 422.113 100.893L421.434 99.2082C421.095 98.3644 420.276 97.8118 419.366 97.8118H411.198C410.286 97.8118 409.466 98.3668 409.128 99.2136Z" stroke="white" stroke-width="1.5" stroke-linecap="round" stroke-linejoin="round"/>
<path d="M411.364 108.582H413.761" stroke="white" stroke-width="1.5" stroke-linecap="round" stroke-linejoin="round"/>
<path d="M408.191 101.805H422.371" stroke="white" stroke-width="1.5" stroke-linecap="round" stroke-linejoin="round"/>
<path d="M415.28 101.806V97.8118" stroke="white" stroke-width="1.5" stroke-linecap="round" stroke-linejoin="round"/>
<path d="M324 104.667C324.921 104.667 325.667 103.921 325.667 103C325.667 102.08 324.921 101.333 324 101.333C323.08 101.333 322.333 102.08 322.333 103C322.333 103.921 323.08 104.667 324 104.667Z" stroke="white" stroke-width="1.25"/>
<path d="M329 114.667C329.921 114.667 330.667 113.92 330.667 113C330.667 112.079 329.921 111.333 329 111.333C328.08 111.333 327.333 112.079 327.333 113C327.333 113.92 328.08 114.667 329 114.667Z" stroke="white" stroke-width="1.25"/>
<path d="M334 104.667C334.921 104.667 335.667 103.921 335.667 103C335.667 102.08 334.921 101.333 334 101.333C333.08 101.333 332.333 102.08 332.333 103C332.333 103.921 333.08 104.667 334 104.667Z" stroke="white" stroke-width="1.25"/>
<path d="M324.014 105.284C324.014 106.678 323.813 108.166 326.684 107.988H329.004M329.004 107.988H332.155C333.1 107.804 334.105 107.988 333.994 105.147M329.004 107.988V111.083" stroke="white" stroke-width="1.25"/>
<g clip-path="url(#clip1_196_31435)">
<path d="M376.25 97.6666H371.25C370.099 97.6666 369.167 98.5994 369.167 99.75V104.75C369.167 105.901 370.099 106.833 371.25 106.833H376.25C377.401 106.833 378.333 105.901 378.333 104.75V99.75C378.333 98.5994 377.401 97.6666 376.25 97.6666Z" stroke="white" stroke-width="1.5" stroke-linecap="round" stroke-linejoin="round"/>
<path d="M369.167 101.417C367.477 101.42 366.592 101.462 366.027 102.027C365.417 102.637 365.417 103.619 365.417 105.584V106.417C365.417 108.381 365.417 109.363 366.027 109.973C366.637 110.584 367.619 110.584 369.583 110.584H370.417C372.381 110.584 373.363 110.584 373.973 109.973C374.539 109.408 374.58 108.523 374.583 106.834" stroke="white" stroke-width="1.5" stroke-linecap="round" stroke-linejoin="round"/>
<path d="M365.417 105.167C363.727 105.17 362.842 105.212 362.277 105.777C361.667 106.387 361.667 107.369 361.667 109.333V110.167C361.667 112.131 361.667 113.113 362.277 113.723C362.887 114.333 363.869 114.333 365.833 114.333H366.667C368.631 114.333 369.613 114.333 370.223 113.723C370.789 113.158 370.83 112.273 370.833 110.583" stroke="white" stroke-width="1.5" stroke-linecap="round" stroke-linejoin="round"/>
</g>
<path d="M286.77 108.843C287.062 106.341 287.488 104.465 287.884 103.132C288.208 102.039 288.37 101.493 289.036 100.996C289.701 100.5 290.381 100.5 291.741 100.5H296.259C297.619 100.5 298.299 100.5 298.964 100.996C299.63 101.493 299.792 102.039 300.116 103.132C300.512 104.465 300.938 106.341 301.23 108.843C301.575 111.791 301.747 113.266 300.752 114.383C299.758 115.5 298.147 115.5 294.924 115.5H293.076C289.854 115.5 288.242 115.5 287.248 114.383C286.253 113.266 286.425 111.791 286.77 108.843Z" stroke="white" stroke-width="1.25" stroke-linecap="round" stroke-linejoin="round"/>
<path d="M291.5 103.833C291.5 105.214 292.619 106.333 294 106.333C295.381 106.333 296.5 105.214 296.5 103.833" stroke="white" stroke-width="1.25" stroke-linecap="round" stroke-linejoin="round"/>
<path d="M114 53.5C114 53.5 117.682 58.5 119 58.5C120.318 58.5 124 53.5 124 53.5" stroke="white" stroke-width="1.25" stroke-linecap="round" stroke-linejoin="round"/>
<path d="M110.001 82L124 95.9991" stroke="#FCF5EB" stroke-width="1.5" stroke-linecap="round" stroke-linejoin="round"/>
<path d="M110 95.9991L123.999 82" stroke="#FCF5EB" stroke-width="1.5" stroke-linecap="round" stroke-linejoin="round"/>
<path d="M112 124H122" stroke="white" stroke-width="1.5" stroke-linecap="round" stroke-linejoin="round"/>
<path d="M117 119V129" stroke="white" stroke-width="1.5" stroke-linecap="round" stroke-linejoin="round"/>
</g>
<defs>
<filter id="filter0_f_196_31435" x="-647.7" y="300.3" width="3447.43" height="2035.09" filterUnits="userSpaceOnUse" colorInterpolationFilters="sRGB">
<feFlood floodOpacity="0" result="BackgroundImageFix"/>
<feBlend mode="normal" in="SourceGraphic" in2="BackgroundImageFix" result="shape"/>
<feGaussianBlur stdDeviation="232.85" result="effect1_foregroundBlur_196_31435"/>
</filter>
<filter id="filter1_f_196_31435" x="-605.7" y="-605.732" width="3195.9" height="2257.64" filterUnits="userSpaceOnUse" colorInterpolationFilters="sRGB">
<feFlood floodOpacity="0" result="BackgroundImageFix"/>
<feBlend mode="normal" in="SourceGraphic" in2="BackgroundImageFix" result="shape"/>
<feGaussianBlur stdDeviation="232.85" result="effect1_foregroundBlur_196_31435"/>
</filter>
<clipPath id="clip0_196_31435">
<rect width="1440" height="541" fill="white"/>
</clipPath>
<clipPath id="clip1_196_31435">
<rect width="20" height="20" fill="white" transform="translate(360 96)"/>
</clipPath>
</defs>
</svg>
